<?xml version="1.0" encoding="utf-8" standalone="no"?>
<!DOCTYPE svg PUBLIC "-//W3C//DTD SVG 1.1//EN"
  "http://www.w3.org/Graphics/SVG/1.1/DTD/svg11.dtd">
<svg xmlns:xlink="http://www.w3.org/1999/xlink" width="460.8pt" height="345.6pt" viewBox="0 0 460.8 345.6" xmlns="http://www.w3.org/2000/svg" version="1.1">
 <metadata>
  <rdf:RDF xmlns:dc="http://purl.org/dc/elements/1.1/" xmlns:cc="http://creativecommons.org/ns#" xmlns:rdf="http://www.w3.org/1999/02/22-rdf-syntax-ns#">
   <cc:Work>
    <dc:type rdf:resource="http://purl.org/dc/dcmitype/StillImage"/>
    <dc:date>2024-09-22T16:48:11.072526</dc:date>
    <dc:format>image/svg+xml</dc:format>
    <dc:creator>
     <cc:Agent>
      <dc:title>Matplotlib v3.8.1, https://matplotlib.org/</dc:title>
     </cc:Agent>
    </dc:creator>
   </cc:Work>
  </rdf:RDF>
 </metadata>
 <defs>
  <style type="text/css">*{stroke-linejoin: round; stroke-linecap: butt}</style>
 </defs>
 <g id="figure_1">
  <g id="patch_1">
   <path d="M 0 345.6 
L 460.8 345.6 
L 460.8 0 
L 0 0 
z
" style="fill: #ffffff"/>
  </g>
  <g id="axes_1">
   <g id="patch_2">
    <path d="M 57.6 307.584 
L 414.72 307.584 
L 414.72 41.472 
L 57.6 41.472 
z
" style="fill: #ffffff"/>
   </g>
   <g id="patch_3">
    <path d="M 115.2 295.488 
L 118.623396 285.217811 
L 121.704453 288.298868 
L 235.81766 174.18566 
L 236.50234 174.87034 
L 122.389132 288.983547 
L 125.470189 292.064604 
z
" clip-path="url(#p4370b5cf93)" style="fill: #00fff6; stroke: #00fff6; stroke-linejoin: miter"/>
   </g>
   <g id="patch_4">
    <path d="M 357.12 174.528 
L 350.273208 177.951396 
L 350.273208 174.87034 
L 236.16 174.87034 
L 236.16 174.18566 
L 350.273208 174.18566 
L 350.273208 171.104604 
z
" clip-path="url(#p4370b5cf93)" style="fill: #00ff86; stroke: #00ff86; stroke-linejoin: miter"/>
   </g>
   <g id="patch_5">
    <path d="M 350.273208 177.666113 
C 351.105445 177.666113 351.903708 177.335462 352.492189 176.746981 
C 353.080669 176.1585 353.411321 175.360237 353.411321 174.528 
C 353.411321 173.695763 353.080669 172.8975 352.492189 172.309019 
C 351.903708 171.720538 351.105445 171.389887 350.273208 171.389887 
C 349.44097 171.389887 348.642707 171.720538 348.054226 172.309019 
C 347.465746 172.8975 347.135094 173.695763 347.135094 174.528 
C 347.135094 175.360237 347.465746 176.1585 348.054226 176.746981 
C 348.642707 177.335462 349.44097 177.666113 350.273208 177.666113 
z
" clip-path="url(#p4370b5cf93)" style="fill: #00ff1b; stroke: #00ff1b; stroke-linejoin: miter"/>
   </g>
   <g id="patch_6">
    <path d="M 350.273208 53.568 
L 353.696604 60.414792 
L 350.615547 60.414792 
L 350.615547 174.528 
L 349.930868 174.528 
L 349.930868 60.414792 
L 346.849811 60.414792 
z
" clip-path="url(#p4370b5cf93)" style="fill: #4fff00; stroke: #4fff00; stroke-linejoin: miter"/>
   </g>
   <g id="patch_7">
    <path d="M 229.313208 60.414792 
L 236.16 56.991396 
L 236.16 60.072453 
L 350.273208 60.072453 
L 350.273208 60.757132 
L 236.16 60.757132 
L 236.16 63.838189 
z
" clip-path="url(#p4370b5cf93)" style="fill: #bfff00; stroke: #bfff00; stroke-linejoin: miter"/>
   </g>
   <g id="patch_8">
    <path d="M 236.16 181.374792 
L 232.736604 174.528 
L 235.81766 174.528 
L 235.81766 60.414792 
L 236.50234 60.414792 
L 236.50234 174.528 
L 239.583396 174.528 
z
" clip-path="url(#p4370b5cf93)" style="fill: #ffd500; stroke: #ffd500; stroke-linejoin: miter"/>
   </g>
   <g id="patch_9">
    <path d="M 115.2 174.528 
L 122.046792 171.104604 
L 122.046792 174.18566 
L 236.16 174.18566 
L 236.16 174.87034 
L 122.046792 174.87034 
L 122.046792 177.951396 
z
" clip-path="url(#p4370b5cf93)" style="fill: #ff6a00; stroke: #ff6a00; stroke-linejoin: miter"/>
   </g>
   <g id="patch_10">
    <path d="M 122.046792 295.488 
L 118.623396 288.641208 
L 121.704453 288.641208 
L 121.704453 174.528 
L 122.389132 174.528 
L 122.389132 288.641208 
L 125.470189 288.641208 
z
" clip-path="url(#p4370b5cf93)" style="fill: #ff0000; stroke: #ff0000; stroke-linejoin: miter"/>
   </g>
   <g id="matplotlib.axis_1">
    <g id="xtick_1">
     <g id="line2d_1">
      <path d="M 64.990189 307.584 
L 64.990189 41.472 
" clip-path="url(#p4370b5cf93)" style="fill: none; stroke: #b0b0b0; stroke-width: 0.8; stroke-linecap: square"/>
     </g>
     <g id="line2d_2">
      <defs>
       <path id="me983e988d5" d="M 0 0 
L 0 3.5 
" style="stroke: #000000; stroke-width: 0.8"/>
      </defs>
      <g>
       <use xlink:href="#me983e988d5" x="64.990189" y="307.584" style="stroke: #000000; stroke-width: 0.8"/>
      </g>
     </g>
     <g id="text_1">
      <!-- −3 -->
      <g transform="translate(59.670657 321.52775) scale(0.1 -0.1)">
       <defs>
        <path id="TimesNewRomanPSMT-2212" d="M 3484 2000 
L 116 2000 
L 116 2256 
L 3484 2256 
L 3484 2000 
z
" transform="scale(0.015625)"/>
        <path id="TimesNewRomanPSMT-33" d="M 325 3431 
Q 506 3859 782 4092 
Q 1059 4325 1472 4325 
Q 1981 4325 2253 3994 
Q 2459 3747 2459 3466 
Q 2459 3003 1878 2509 
Q 2269 2356 2469 2072 
Q 2669 1788 2669 1403 
Q 2669 853 2319 450 
Q 1863 -75 997 -75 
Q 569 -75 414 31 
Q 259 138 259 259 
Q 259 350 332 419 
Q 406 488 509 488 
Q 588 488 669 463 
Q 722 447 909 348 
Q 1097 250 1169 231 
Q 1284 197 1416 197 
Q 1734 197 1970 444 
Q 2206 691 2206 1028 
Q 2206 1275 2097 1509 
Q 2016 1684 1919 1775 
Q 1784 1900 1550 2001 
Q 1316 2103 1072 2103 
L 972 2103 
L 972 2197 
Q 1219 2228 1467 2375 
Q 1716 2522 1828 2728 
Q 1941 2934 1941 3181 
Q 1941 3503 1739 3701 
Q 1538 3900 1238 3900 
Q 753 3900 428 3381 
L 325 3431 
z
" transform="scale(0.015625)"/>
       </defs>
       <use xlink:href="#TimesNewRomanPSMT-2212"/>
       <use xlink:href="#TimesNewRomanPSMT-33" x="56.396484"/>
      </g>
     </g>
    </g>
    <g id="xtick_2">
     <g id="line2d_3">
      <path d="M 122.046792 307.584 
L 122.046792 41.472 
" clip-path="url(#p4370b5cf93)" style="fill: none; stroke: #b0b0b0; stroke-width: 0.8; stroke-linecap: square"/>
     </g>
     <g id="line2d_4">
      <g>
       <use xlink:href="#me983e988d5" x="122.046792" y="307.584" style="stroke: #000000; stroke-width: 0.8"/>
      </g>
     </g>
     <g id="text_2">
      <!-- −2 -->
      <g transform="translate(116.727261 321.52775) scale(0.1 -0.1)">
       <defs>
        <path id="TimesNewRomanPSMT-32" d="M 2934 816 
L 2638 0 
L 138 0 
L 138 116 
Q 1241 1122 1691 1759 
Q 2141 2397 2141 2925 
Q 2141 3328 1894 3587 
Q 1647 3847 1303 3847 
Q 991 3847 742 3664 
Q 494 3481 375 3128 
L 259 3128 
Q 338 3706 661 4015 
Q 984 4325 1469 4325 
Q 1984 4325 2329 3994 
Q 2675 3663 2675 3213 
Q 2675 2891 2525 2569 
Q 2294 2063 1775 1497 
Q 997 647 803 472 
L 1909 472 
Q 2247 472 2383 497 
Q 2519 522 2628 598 
Q 2738 675 2819 816 
L 2934 816 
z
" transform="scale(0.015625)"/>
       </defs>
       <use xlink:href="#TimesNewRomanPSMT-2212"/>
       <use xlink:href="#TimesNewRomanPSMT-32" x="56.396484"/>
      </g>
     </g>
    </g>
    <g id="xtick_3">
     <g id="line2d_5">
      <path d="M 179.103396 307.584 
L 179.103396 41.472 
" clip-path="url(#p4370b5cf93)" style="fill: none; stroke: #b0b0b0; stroke-width: 0.8; stroke-linecap: square"/>
     </g>
     <g id="line2d_6">
      <g>
       <use xlink:href="#me983e988d5" x="179.103396" y="307.584" style="stroke: #000000; stroke-width: 0.8"/>
      </g>
     </g>
     <g id="text_3">
      <!-- −1 -->
      <g transform="translate(173.783865 321.52775) scale(0.1 -0.1)">
       <defs>
        <path id="TimesNewRomanPSMT-31" d="M 750 3822 
L 1781 4325 
L 1884 4325 
L 1884 747 
Q 1884 391 1914 303 
Q 1944 216 2037 169 
Q 2131 122 2419 116 
L 2419 0 
L 825 0 
L 825 116 
Q 1125 122 1212 167 
Q 1300 213 1334 289 
Q 1369 366 1369 747 
L 1369 3034 
Q 1369 3497 1338 3628 
Q 1316 3728 1258 3775 
Q 1200 3822 1119 3822 
Q 1003 3822 797 3725 
L 750 3822 
z
" transform="scale(0.015625)"/>
       </defs>
       <use xlink:href="#TimesNewRomanPSMT-2212"/>
       <use xlink:href="#TimesNewRomanPSMT-31" x="56.396484"/>
      </g>
     </g>
    </g>
    <g id="xtick_4">
     <g id="line2d_7">
      <path d="M 236.16 307.584 
L 236.16 41.472 
" clip-path="url(#p4370b5cf93)" style="fill: none; stroke: #b0b0b0; stroke-width: 0.8; stroke-linecap: square"/>
     </g>
     <g id="line2d_8">
      <g>
       <use xlink:href="#me983e988d5" x="236.16" y="307.584" style="stroke: #000000; stroke-width: 0.8"/>
      </g>
     </g>
     <g id="text_4">
      <!-- 0 -->
      <g transform="translate(233.66 321.52775) scale(0.1 -0.1)">
       <defs>
        <path id="TimesNewRomanPSMT-30" d="M 231 2094 
Q 231 2819 450 3342 
Q 669 3866 1031 4122 
Q 1313 4325 1613 4325 
Q 2100 4325 2488 3828 
Q 2972 3213 2972 2159 
Q 2972 1422 2759 906 
Q 2547 391 2217 158 
Q 1888 -75 1581 -75 
Q 975 -75 572 641 
Q 231 1244 231 2094 
z
M 844 2016 
Q 844 1141 1059 588 
Q 1238 122 1591 122 
Q 1759 122 1940 273 
Q 2122 425 2216 781 
Q 2359 1319 2359 2297 
Q 2359 3022 2209 3506 
Q 2097 3866 1919 4016 
Q 1791 4119 1609 4119 
Q 1397 4119 1231 3928 
Q 1006 3669 925 3112 
Q 844 2556 844 2016 
z
" transform="scale(0.015625)"/>
       </defs>
       <use xlink:href="#TimesNewRomanPSMT-30"/>
      </g>
     </g>
    </g>
    <g id="xtick_5">
     <g id="line2d_9">
      <path d="M 293.216604 307.584 
L 293.216604 41.472 
" clip-path="url(#p4370b5cf93)" style="fill: none; stroke: #b0b0b0; stroke-width: 0.8; stroke-linecap: square"/>
     </g>
     <g id="line2d_10">
      <g>
       <use xlink:href="#me983e988d5" x="293.216604" y="307.584" style="stroke: #000000; stroke-width: 0.8"/>
      </g>
     </g>
     <g id="text_5">
      <!-- 1 -->
      <g transform="translate(290.716604 321.52775) scale(0.1 -0.1)">
       <use xlink:href="#TimesNewRomanPSMT-31"/>
      </g>
     </g>
    </g>
    <g id="xtick_6">
     <g id="line2d_11">
      <path d="M 350.273208 307.584 
L 350.273208 41.472 
" clip-path="url(#p4370b5cf93)" style="fill: none; stroke: #b0b0b0; stroke-width: 0.8; stroke-linecap: square"/>
     </g>
     <g id="line2d_12">
      <g>
       <use xlink:href="#me983e988d5" x="350.273208" y="307.584" style="stroke: #000000; stroke-width: 0.8"/>
      </g>
     </g>
     <g id="text_6">
      <!-- 2 -->
      <g transform="translate(347.773208 321.52775) scale(0.1 -0.1)">
       <use xlink:href="#TimesNewRomanPSMT-32"/>
      </g>
     </g>
    </g>
    <g id="xtick_7">
     <g id="line2d_13">
      <path d="M 407.329811 307.584 
L 407.329811 41.472 
" clip-path="url(#p4370b5cf93)" style="fill: none; stroke: #b0b0b0; stroke-width: 0.8; stroke-linecap: square"/>
     </g>
     <g id="line2d_14">
      <g>
       <use xlink:href="#me983e988d5" x="407.329811" y="307.584" style="stroke: #000000; stroke-width: 0.8"/>
      </g>
     </g>
     <g id="text_7">
      <!-- 3 -->
      <g transform="translate(404.829811 321.52775) scale(0.1 -0.1)">
       <use xlink:href="#TimesNewRomanPSMT-33"/>
      </g>
     </g>
    </g>
   </g>
   <g id="matplotlib.axis_2">
    <g id="ytick_1">
     <g id="line2d_15">
      <path d="M 57.6 288.641208 
L 414.72 288.641208 
" clip-path="url(#p4370b5cf93)" style="fill: none; stroke: #b0b0b0; stroke-width: 0.8; stroke-linecap: square"/>
     </g>
     <g id="line2d_16">
      <defs>
       <path id="m1263678472" d="M 0 0 
L -3.5 0 
" style="stroke: #000000; stroke-width: 0.8"/>
      </defs>
      <g>
       <use xlink:href="#m1263678472" x="57.6" y="288.641208" style="stroke: #000000; stroke-width: 0.8"/>
      </g>
     </g>
     <g id="text_8">
      <!-- −2 -->
      <g transform="translate(39.960938 292.113083) scale(0.1 -0.1)">
       <use xlink:href="#TimesNewRomanPSMT-2212"/>
       <use xlink:href="#TimesNewRomanPSMT-32" x="56.396484"/>
      </g>
     </g>
    </g>
    <g id="ytick_2">
     <g id="line2d_17">
      <path d="M 57.6 231.584604 
L 414.72 231.584604 
" clip-path="url(#p4370b5cf93)" style="fill: none; stroke: #b0b0b0; stroke-width: 0.8; stroke-linecap: square"/>
     </g>
     <g id="line2d_18">
      <g>
       <use xlink:href="#m1263678472" x="57.6" y="231.584604" style="stroke: #000000; stroke-width: 0.8"/>
      </g>
     </g>
     <g id="text_9">
      <!-- −1 -->
      <g transform="translate(39.960938 235.056479) scale(0.1 -0.1)">
       <use xlink:href="#TimesNewRomanPSMT-2212"/>
       <use xlink:href="#TimesNewRomanPSMT-31" x="56.396484"/>
      </g>
     </g>
    </g>
    <g id="ytick_3">
     <g id="line2d_19">
      <path d="M 57.6 174.528 
L 414.72 174.528 
" clip-path="url(#p4370b5cf93)" style="fill: none; stroke: #b0b0b0; stroke-width: 0.8; stroke-linecap: square"/>
     </g>
     <g id="line2d_20">
      <g>
       <use xlink:href="#m1263678472" x="57.6" y="174.528" style="stroke: #000000; stroke-width: 0.8"/>
      </g>
     </g>
     <g id="text_10">
      <!-- 0 -->
      <g transform="translate(45.6 177.999875) scale(0.1 -0.1)">
       <use xlink:href="#TimesNewRomanPSMT-30"/>
      </g>
     </g>
    </g>
    <g id="ytick_4">
     <g id="line2d_21">
      <path d="M 57.6 117.471396 
L 414.72 117.471396 
" clip-path="url(#p4370b5cf93)" style="fill: none; stroke: #b0b0b0; stroke-width: 0.8; stroke-linecap: square"/>
     </g>
     <g id="line2d_22">
      <g>
       <use xlink:href="#m1263678472" x="57.6" y="117.471396" style="stroke: #000000; stroke-width: 0.8"/>
      </g>
     </g>
     <g id="text_11">
      <!-- 1 -->
      <g transform="translate(45.6 120.943271) scale(0.1 -0.1)">
       <use xlink:href="#TimesNewRomanPSMT-31"/>
      </g>
     </g>
    </g>
    <g id="ytick_5">
     <g id="line2d_23">
      <path d="M 57.6 60.414792 
L 414.72 60.414792 
" clip-path="url(#p4370b5cf93)" style="fill: none; stroke: #b0b0b0; stroke-width: 0.8; stroke-linecap: square"/>
     </g>
     <g id="line2d_24">
      <g>
       <use xlink:href="#m1263678472" x="57.6" y="60.414792" style="stroke: #000000; stroke-width: 0.8"/>
      </g>
     </g>
     <g id="text_12">
      <!-- 2 -->
      <g transform="translate(45.6 63.886667) scale(0.1 -0.1)">
       <use xlink:href="#TimesNewRomanPSMT-32"/>
      </g>
     </g>
    </g>
   </g>
   <g id="patch_11">
    <path d="M 57.6 307.584 
L 57.6 41.472 
" style="fill: none; stroke: #000000; stroke-width: 0.8; stroke-linejoin: miter; stroke-linecap: square"/>
   </g>
   <g id="patch_12">
    <path d="M 414.72 307.584 
L 414.72 41.472 
" style="fill: none; stroke: #000000; stroke-width: 0.8; stroke-linejoin: miter; stroke-linecap: square"/>
   </g>
   <g id="patch_13">
    <path d="M 57.6 307.584 
L 414.72 307.584 
" style="fill: none; stroke: #000000; stroke-width: 0.8; stroke-linejoin: miter; stroke-linecap: square"/>
   </g>
   <g id="patch_14">
    <path d="M 57.6 41.472 
L 414.72 41.472 
" style="fill: none; stroke: #000000; stroke-width: 0.8; stroke-linejoin: miter; stroke-linecap: square"/>
   </g>
   <g id="legend_1">
    <g id="patch_15">
     <path d="M 66 191.352 
L 149.4 191.352 
Q 151.8 191.352 151.8 188.952 
L 151.8 49.872 
Q 151.8 47.472 149.4 47.472 
L 66 47.472 
Q 63.6 47.472 63.6 49.872 
L 63.6 188.952 
Q 63.6 191.352 66 191.352 
z
" style="fill: #ffffff; opacity: 0.8; stroke: #cccccc; stroke-linejoin: miter"/>
    </g>
    <g id="patch_16">
     <path d="M 68.4 60.865125 
L 92.4 60.865125 
L 92.4 52.465125 
L 68.4 52.465125 
z
" style="fill: #00fff6; stroke: #00fff6; stroke-linejoin: miter"/>
    </g>
    <g id="text_13">
     <!-- $\left(-2, -2\right)$ -->
     <g transform="translate(102 60.865125) scale(0.12 -0.12)">
      <defs>
       <path id="DejaVuSans-28" d="M 1984 4856 
Q 1566 4138 1362 3434 
Q 1159 2731 1159 2009 
Q 1159 1288 1364 580 
Q 1569 -128 1984 -844 
L 1484 -844 
Q 1016 -109 783 600 
Q 550 1309 550 2009 
Q 550 2706 781 3412 
Q 1013 4119 1484 4856 
L 1984 4856 
z
" transform="scale(0.015625)"/>
       <path id="TimesNewRomanPSMT-2c" d="M 344 -1066 
L 344 -928 
Q 666 -822 842 -598 
Q 1019 -375 1019 -125 
Q 1019 -66 991 -25 
Q 969 3 947 3 
Q 913 3 797 -59 
Q 741 -88 678 -88 
Q 525 -88 434 3 
Q 344 94 344 253 
Q 344 406 461 515 
Q 578 625 747 625 
Q 953 625 1114 445 
Q 1275 266 1275 -31 
Q 1275 -353 1051 -629 
Q 828 -906 344 -1066 
z
" transform="scale(0.015625)"/>
       <path id="DejaVuSans-29" d="M 513 4856 
L 1013 4856 
Q 1481 4119 1714 3412 
Q 1947 2706 1947 2009 
Q 1947 1309 1714 600 
Q 1481 -109 1013 -844 
L 513 -844 
Q 928 -128 1133 580 
Q 1338 1288 1338 2009 
Q 1338 2731 1133 3434 
Q 928 4138 513 4856 
z
" transform="scale(0.015625)"/>
      </defs>
      <use xlink:href="#DejaVuSans-28" transform="translate(0 0.125)"/>
      <use xlink:href="#TimesNewRomanPSMT-2212" transform="translate(39.013672 0.125)"/>
      <use xlink:href="#TimesNewRomanPSMT-32" transform="translate(95.410156 0.125)"/>
      <use xlink:href="#TimesNewRomanPSMT-2c" transform="translate(145.410156 0.125)"/>
      <use xlink:href="#TimesNewRomanPSMT-2212" transform="translate(209.375 0.125)"/>
      <use xlink:href="#TimesNewRomanPSMT-32" transform="translate(285.253906 0.125)"/>
      <use xlink:href="#DejaVuSans-29" transform="translate(335.253906 0.125)"/>
     </g>
    </g>
    <g id="patch_17">
     <path d="M 68.4 78.025125 
L 92.4 78.025125 
L 92.4 69.625125 
L 68.4 69.625125 
z
" style="fill: #00ff86; stroke: #00ff86; stroke-linejoin: miter"/>
    </g>
    <g id="text_14">
     <!-- $\left(2, 0\right)$ -->
     <g transform="translate(102 78.025125) scale(0.12 -0.12)">
      <use xlink:href="#DejaVuSans-28" transform="translate(0 0.125)"/>
      <use xlink:href="#TimesNewRomanPSMT-32" transform="translate(39.013672 0.125)"/>
      <use xlink:href="#TimesNewRomanPSMT-2c" transform="translate(89.013672 0.125)"/>
      <use xlink:href="#TimesNewRomanPSMT-30" transform="translate(133.496094 0.125)"/>
      <use xlink:href="#DejaVuSans-29" transform="translate(183.496094 0.125)"/>
     </g>
    </g>
    <g id="patch_18">
     <path d="M 68.4 98.185125 
L 92.4 98.185125 
L 92.4 89.785125 
L 68.4 89.785125 
z
" style="fill: #00ff1b; stroke: #00ff1b; stroke-linejoin: miter"/>
    </g>
    <g id="text_15">
     <!-- $\overrightarrow{0}$ -->
     <g transform="translate(102 98.185125) scale(0.12 -0.12)">
      <defs>
       <path id="TimesNewRomanPSMT-2192" d="M 4859 2738 
Q 5275 2284 5578 2048 
Q 5881 1813 6150 1697 
L 6150 1556 
Q 5841 1406 5550 1173 
Q 5259 941 4856 491 
L 4616 491 
Q 4909 1119 5231 1456 
L 247 1456 
L 247 1772 
L 5231 1772 
Q 4994 2075 4900 2222 
Q 4806 2369 4622 2738 
L 4859 2738 
z
" transform="scale(0.015625)"/>
      </defs>
      <use xlink:href="#TimesNewRomanPSMT-2192" transform="translate(-18.359375 73.21875)"/>
      <use xlink:href="#TimesNewRomanPSMT-30" transform="translate(0 0.8125)"/>
     </g>
    </g>
    <g id="patch_19">
     <path d="M 68.4 115.345125 
L 92.4 115.345125 
L 92.4 106.945125 
L 68.4 106.945125 
z
" style="fill: #4fff00; stroke: #4fff00; stroke-linejoin: miter"/>
    </g>
    <g id="text_16">
     <!-- $\left(0, 2\right)$ -->
     <g transform="translate(102 115.345125) scale(0.12 -0.12)">
      <use xlink:href="#DejaVuSans-28" transform="translate(0 0.125)"/>
      <use xlink:href="#TimesNewRomanPSMT-30" transform="translate(39.013672 0.125)"/>
      <use xlink:href="#TimesNewRomanPSMT-2c" transform="translate(89.013672 0.125)"/>
      <use xlink:href="#TimesNewRomanPSMT-32" transform="translate(133.496094 0.125)"/>
      <use xlink:href="#DejaVuSans-29" transform="translate(183.496094 0.125)"/>
     </g>
    </g>
    <g id="patch_20">
     <path d="M 68.4 132.505125 
L 92.4 132.505125 
L 92.4 124.105125 
L 68.4 124.105125 
z
" style="fill: #bfff00; stroke: #bfff00; stroke-linejoin: miter"/>
    </g>
    <g id="text_17">
     <!-- $\left(-2, 0\right)$ -->
     <g transform="translate(102 132.505125) scale(0.12 -0.12)">
      <use xlink:href="#DejaVuSans-28" transform="translate(0 0.125)"/>
      <use xlink:href="#TimesNewRomanPSMT-2212" transform="translate(39.013672 0.125)"/>
      <use xlink:href="#TimesNewRomanPSMT-32" transform="translate(95.410156 0.125)"/>
      <use xlink:href="#TimesNewRomanPSMT-2c" transform="translate(145.410156 0.125)"/>
      <use xlink:href="#TimesNewRomanPSMT-30" transform="translate(189.892578 0.125)"/>
      <use xlink:href="#DejaVuSans-29" transform="translate(239.892578 0.125)"/>
     </g>
    </g>
    <g id="patch_21">
     <path d="M 68.4 149.665125 
L 92.4 149.665125 
L 92.4 141.265125 
L 68.4 141.265125 
z
" style="fill: #ffd500; stroke: #ffd500; stroke-linejoin: miter"/>
    </g>
    <g id="text_18">
     <!-- $\left(0, -2\right)$ -->
     <g transform="translate(102 149.665125) scale(0.12 -0.12)">
      <use xlink:href="#DejaVuSans-28" transform="translate(0 0.125)"/>
      <use xlink:href="#TimesNewRomanPSMT-30" transform="translate(39.013672 0.125)"/>
      <use xlink:href="#TimesNewRomanPSMT-2c" transform="translate(89.013672 0.125)"/>
      <use xlink:href="#TimesNewRomanPSMT-2212" transform="translate(152.978516 0.125)"/>
      <use xlink:href="#TimesNewRomanPSMT-32" transform="translate(228.857422 0.125)"/>
      <use xlink:href="#DejaVuSans-29" transform="translate(278.857422 0.125)"/>
     </g>
    </g>
    <g id="patch_22">
     <path d="M 68.4 166.825125 
L 92.4 166.825125 
L 92.4 158.425125 
L 68.4 158.425125 
z
" style="fill: #ff6a00; stroke: #ff6a00; stroke-linejoin: miter"/>
    </g>
    <g id="text_19">
     <!-- $\left(-2, 0\right)$ -->
     <g transform="translate(102 166.825125) scale(0.12 -0.12)">
      <use xlink:href="#DejaVuSans-28" transform="translate(0 0.125)"/>
      <use xlink:href="#TimesNewRomanPSMT-2212" transform="translate(39.013672 0.125)"/>
      <use xlink:href="#TimesNewRomanPSMT-32" transform="translate(95.410156 0.125)"/>
      <use xlink:href="#TimesNewRomanPSMT-2c" transform="translate(145.410156 0.125)"/>
      <use xlink:href="#TimesNewRomanPSMT-30" transform="translate(189.892578 0.125)"/>
      <use xlink:href="#DejaVuSans-29" transform="translate(239.892578 0.125)"/>
     </g>
    </g>
    <g id="patch_23">
     <path d="M 68.4 183.985125 
L 92.4 183.985125 
L 92.4 175.585125 
L 68.4 175.585125 
z
" style="fill: #ff0000; stroke: #ff0000; stroke-linejoin: miter"/>
    </g>
    <g id="text_20">
     <!-- $\left(0, 2\right)$ -->
     <g transform="translate(102 183.985125) scale(0.12 -0.12)">
      <use xlink:href="#DejaVuSans-28" transform="translate(0 0.125)"/>
      <use xlink:href="#TimesNewRomanPSMT-30" transform="translate(39.013672 0.125)"/>
      <use xlink:href="#TimesNewRomanPSMT-2c" transform="translate(89.013672 0.125)"/>
      <use xlink:href="#TimesNewRomanPSMT-2212" transform="translate(152.978516 0.125)"/>
      <use xlink:href="#TimesNewRomanPSMT-32" transform="translate(228.857422 0.125)"/>
      <use xlink:href="#DejaVuSans-29" transform="translate(278.857422 0.125)"/>
     </g>
    </g>
   </g>
  </g>
 </g>
 <defs>
  <clipPath id="p4370b5cf93">
   <rect x="57.6" y="41.472" width="357.12" height="266.112"/>
  </clipPath>
 </defs>
</svg>
